inDegrees=no
num_controls=7
num_derivatives=13
num_iterations=131
num_multipliers=7
num_parameters=0
num_slacks=7
num_states=26
objective=5.208080
objective_accelerations=0.775673
objective_balance=0.022970
objective_effort=0.246098
objective_height=4.136504
objective_ligament=0.026835
solver_duration=1433.563642
status=Solve_Succeeded
success=true
DataType=double
version=3
OpenSimVersion=4.4-2022-07-23-0e9fedc
endheader
time	/jointset/ground_pelvis/pelvis_tilt/value	/jointset/ground_pelvis/pelvis_tx/value	/jointset/ground_pelvis/pelvis_ty/value	/jointset/hip_l/hip_flexion_l/value	/jointset/hip_l/hip_adduction_l/value	/jointset/hip_l/hip_rotation_l/value	/jointset/back/lumbar_extension/value	/jointset/patellofemoral_l/patellar_flexion_l/value	/jointset/knee_l/knee_flexion_l/value	/jointset/knee_l/knee_adduction_l/value	/jointset/knee_l/knee_rotation_l/value	/jointset/ankle_l/ankle_angle_l/value	/jointset/subtalar_l/subtalar_angle_l/value	/jointset/ground_pelvis/pelvis_tilt/speed	/jointset/ground_pelvis/pelvis_tx/speed	/jointset/ground_pelvis/pelvis_ty/speed	/jointset/hip_l/hip_flexion_l/speed	/jointset/hip_l/hip_adduction_l/speed	/jointset/hip_l/hip_rotation_l/speed	/jointset/back/lumbar_extension/speed	/jointset/patellofemoral_l/patellar_flexion_l/speed	/jointset/knee_l/knee_flexion_l/speed	/jointset/knee_l/knee_adduction_l/speed	/jointset/knee_l/knee_rotation_l/speed	/jointset/ankle_l/ankle_angle_l/speed	/jointset/subtalar_l/subtalar_angle_l/speed	/forceset/tau_hip_flexion_l	/forceset/tau_hip_adduction_l	/forceset/tau_hip_rotation_l	/forceset/tau_knee_flexion_l	/forceset/tau_ankle_angle_l	/forceset/tau_subtalar_angle_l	/forceset/tau_lumbar_extension	lambda_cid13_p0	lambda_cid13_p1	lambda_cid13_p2	lambda_cid13_p3	lambda_cid13_p4	lambda_cid13_p5	lambda_cid14_p0	/jointset/ground_pelvis/pelvis_tilt/accel	/jointset/ground_pelvis/pelvis_tx/accel	/jointset/ground_pelvis/pelvis_ty/accel	/jointset/hip_l/hip_flexion_l/accel	/jointset/hip_l/hip_adduction_l/accel	/jointset/hip_l/hip_rotation_l/accel	/jointset/back/lumbar_extension/accel	/jointset/patellofemoral_l/patellar_flexion_l/accel	/jointset/knee_l/knee_flexion_l/accel	/jointset/knee_l/knee_adduction_l/accel	/jointset/knee_l/knee_rotation_l/accel	/jointset/ankle_l/ankle_angle_l/accel	/jointset/subtalar_l/subtalar_angle_l/accel	gamma_cid13_p0	gamma_cid13_p1	gamma_cid13_p2	gamma_cid13_p3	gamma_cid13_p4	gamma_cid13_p5	gamma_cid14_p0
0	0.048262512750756	0.1079863823697544	0.9028660170970222	0.1266917050730164	-0.3700751147982352	-0.2234346104521366	-0.2144974744115991	0.2051547269256614	0.2051547269256735	-0.1745324265507601	-0.1587036631157845	0.09024399430361882	0.07896937420188677	0	0	0	0	0	0	0	0	0	0	0	0	0	0.1148464603854654	-0.05886967795042165	-0.00383912713122278	-0.2075971851749833	0.07937035240884019	-0.06369341255289236	-0.05519921812235645	-5.534039463381903	26.87078547084699	-2.554338029838232	24.99743591321221	-448.357455057659	-63.27131440904608	-26.19748761028552	-6.535023784622675	-2.793213817501578	-0.9612533883831268	15.68237733624092	-0.2049683566529343	2.683016880310164	-4.185092849791806	8.089752778618179	8.089752778618049	1.498032025268072	-0.7293411486029271	-0.4400141447674066	-0.38746992399799	8.534042371875084e-09	2.624362041499581e-07	-8.520081203057617e-09	8.171832129850556e-09	7.550490203281734e-08	9.877916665816695e-08	2.425764689542406e-08
0.01	0.04794598778144121	0.1078487052064093	0.9028192924672281	0.1274557038384553	-0.3700849820343631	-0.2232965239754934	-0.2147116072910635	0.2055476301616996	0.2055476301616598	-0.1744599442978613	-0.1587317994906548	0.0902205491962477	0.07894993080526569	-0.06307930637063834	-0.02737780981801347	-0.009318339837395455	0.1521208583633647	-0.001950461875079632	0.02749930631016873	-0.04250473419279428	0.07819650756395663	0.07819650756396009	0.01444222758634709	-0.005570420559276641	-0.004641832105755602	-0.003848024164693377	0.1128767053583002	-0.06426103085763556	-0.003637026039787444	-0.2072254939213717	0.07924278845975539	-0.0584809233891978	-0.05327816298044535	-5.239184152684496	24.51360267539823	-2.130824132537396	23.68727492949166	-448.610526315298	-68.05936856792103	-26.19770285957147	-6.160533963770183	-2.686419501572804	-0.913121262309861	14.87510372005567	-0.1866749020546108	2.765698092597588	-4.23488744913668	7.626973947569895	7.62697394757051	1.409226754423048	-0.4623712936961842	-0.4691807575366692	-0.3774108823725249	-9.325961766896452e-09	3.743356740000794e-07	2.764123617498507e-08	2.794849070669012e-08	-1.271026895402383e-07	7.466355356105253e-08	3.701419510314216e-08
0.02	0.04700543976831723	0.1074419789573602	0.9026801850428822	0.129720543914281	-0.3701136718490756	-0.2228869823185195	-0.2153411322614778	0.2067109733137988	0.2067109733138006	-0.1742446580432097	-0.1588139358279984	0.09015210316500379	0.07889321872306414	-0.1248046087607263	-0.05380981714079657	-0.01847655891037289	0.3001682620735848	-0.003764515714948759	0.05429103606943415	-0.08307841819013947	0.1540879832193294	0.1540879832193359	0.02856080033686947	-0.01079999248279711	-0.009000184773797291	-0.007453737116103019	0.1109069503314754	-0.06965238376481486	-0.003434924947990579	-0.2068538026675761	0.07911522451076038	-0.05326843422544254	-0.05135710783836327	-4.908864853667323	22.15286121738012	-1.709773025219779	22.45067848780021	-448.1655324110021	-72.73575865518977	-26.19816082801299	-6.264222988512724	-2.604053318455374	-0.9292292354995511	14.86768640561188	-0.1776867496110973	2.541501570129577	-3.798882810702032	7.628746396901348	7.62874639690113	1.433301058102586	-0.6611714214517204	-0.3833182572245559	-0.3390076813415107	-2.718596590566799e-08	4.862351438502007e-07	6.380255355302774e-08	4.772514928352968e-08	-3.297102811132939e-07	5.054794046393811e-08	4.977074331086025e-08
0.03	0.04545418432308814	0.106775144234022	0.9024499685083103	0.1334467697049463	-0.3701597442294587	-0.2222139270118618	-0.2163661639427825	0.208622406978222	0.208622406978232	-0.1738896119977192	-0.1589476511372859	0.09004103173372076	0.07880161835786192	-0.1851735115717356	-0.07944780374990236	-0.02756362410008744	0.4444122765932015	-0.005428378772138402	0.08019789539287063	-0.1216195683166434	0.2278199213264929	0.2278199213264771	0.04237586120035627	-0.01588778265716902	-0.0132284021064079	-0.01084541910868535	0.1067272381358634	-0.0670265158443608	-0.002712065105854295	-0.2032081354158582	0.07616847070498588	-0.05397065683075382	-0.04811271484189791	-5.818412832719388	22.51121317473727	-1.645964433184145	22.46627265679681	-447.3004672975373	-71.27144526486819	-26.19859563638322	-5.882276828018799	-2.527263140274609	-0.898043335851106	14.10306261377248	-0.1575778046281558	2.596963622058802	-3.835478650591763	7.188583261569547	7.188583261566628	1.34481586563494	-0.4242903606912682	-0.4447039914991962	-0.3361949820524016	-3.561417313890127e-08	5.566483064390868e-07	8.098165274877433e-08	5.885632259941274e-08	-4.510890675453047e-07	3.910048060575715e-08	5.919950377053836e-08
0.04	0.04330742926961541	0.1058552112829663	0.9021289616868123	0.1385954963685138	-0.3702218235845695	-0.2212854660102262	-0.217767356632749	0.2112597931724637	0.2112597931724648	-0.1733985738904656	-0.1591305858574494	0.08988725202507407	0.07867671186796668	-0.2439045304076488	-0.1044294626842983	-0.036634616295568	0.5846684366583034	-0.006965910663531377	0.1053721750606245	-0.1583106199218479	0.2992784891914715	0.2992784891914363	0.05575921267034191	-0.02064387464198867	-0.01754184024782485	-0.01411496205471575	0.1025475259399341	-0.06440064792398133	-0.001989205263341196	-0.19956246816447	0.07322171689907873	-0.05467287943618974	-0.04486832184556572	-6.696025600468347	22.86675642603955	-1.584888600483227	22.54937329552002	-445.8074419094258	-69.70107285104964	-26.19853204177354	-5.936646193493626	-2.472787783513257	-0.9260146366527743	14.0701155147088	-0.1524205164519563	2.394985638993107	-3.428863106442199	7.174072348464332	7.17407234846466	1.346959179401977	-0.5948317835412817	-0.4003624189857281	-0.3145798720312956	-4.38479103328451e-08	6.262060812493908e-07	9.77693660026179e-08	6.980923848723485e-08	-5.707930332527581e-07	2.79142197834305e-08	6.855965004984451e-08
0.05	0.04058060367138663	0.1046888419739897	0.9017170106091146	0.1451282725038506	-0.3702985035121908	-0.2201094782988758	-0.2195254432727678	0.2146012803939982	0.2146012803939634	-0.1727754704542058	-0.1593601174797226	0.08969033032049822	0.07852001000997434	-0.3011960535499877	-0.1287205897900754	-0.04577270065763243	0.7212150233070546	-0.008342775505641456	0.1297135333240649	-0.1930089740524523	0.3686373601040398	0.3686373601040275	0.0687862566107894	-0.02518547351702509	-0.02184086022134752	-0.01719349986895902	0.09827562043509773	-0.06374935161432664	-0.001266631792303327	-0.1968643706053483	0.07153995993824429	-0.0538532976614534	-0.04162883840997285	-7.058241147546238	22.50149714160759	-1.443573280454577	22.07742463480584	-444.1189065949923	-69.63461164659498	-26.19743095966371	-5.58572009511109	-2.388689725184169	-0.9103856739991255	13.34616124314126	-0.1263280528764921	2.436940679988441	-3.44566146207727	6.75954142417195	6.759541424175346	1.269412001060312	-0.3722759713349734	-0.4444067193200621	-0.2998141536292519	-4.776576336164864e-08	6.475163414546245e-07	9.614859024000364e-08	7.702295919351524e-08	-6.346812166652179e-07	1.945386165496359e-08	7.43306322643684e-08
0.06	0.03728879989762486	0.1032832784837411	0.9012131426201931	0.1530063607063076	-0.370388153805188	-0.2186934310528973	-0.2216215814332366	0.2186249057168974	0.2186249057168982	-0.172024329578594	-0.1596327554972269	0.08945047142963007	0.07833345809033788	-0.3569001655125953	-0.1522682989387011	-0.05501799854030406	0.8537308500831474	-0.009559983739200341	0.1533840819862573	-0.225920924011377	0.4357061094773555	0.4357061094773652	0.08136670053898609	-0.0292651536660615	-0.02612927750625768	-0.02008497438354911	0.094003714930261	-0.06309805530466514	-0.0005440583206893854	-0.1941662730463216	0.06985820297740003	-0.05303371588671962	-0.03838935497438504	-7.392624649208082	22.13443012796127	-1.305472695595826	21.66874396255267	-441.8779310380796	-69.46832370192742	-26.19454308224753	-5.619163957547537	-2.324104192082803	-0.9474573407742342	13.26396354017703	-0.1204891947418859	2.260823718743557	-3.071582272106313	6.716048040613757	6.716048040613903	1.257639176951473	-0.5024480383412865	-0.3982418812631081	-0.2771672121008052	-5.150189495191994e-08	6.667951273606975e-07	9.375272020301221e-08	8.407924010267808e-08	-6.962192618757832e-07	1.110827837676448e-08	7.995049178142778e-08
0.07000000000000001	0.03344698963992829	0.1016459070736192	0.9006160109109258	0.1621910967846343	-0.370489089189124	-0.2170449035812533	-0.2240370717280307	0.2233088523956757	0.2233088523957256	-0.1711492421785097	-0.1599450103953949	0.0891680696472333	0.07811912135309559	-0.4111952397200135	-0.1750817984707404	-0.06444106508854229	0.9825459927243063	-0.01059854219700874	0.1762029618925337	-0.2568883500907319	0.5007057540744323	0.5007057540744201	0.09356955277827883	-0.03311117565033909	-0.03035042811367695	-0.02274924572854093	0.08925407378639398	-0.06199136976272971	0.0002668501379635645	-0.1914715629174057	0.06849051699703157	-0.05248792346281052	-0.03489518919151959	-7.633204839111905	21.87868213978153	-1.195211676528606	21.14580033908049	-439.5434094037342	-68.98397664103436	-26.18910302623298	-5.294674732063964	-2.241328239683867	-0.9447795679750112	12.58973034218805	-0.09136602942498268	2.274660867318338	-3.066005047575911	6.335285778918538	6.335285778915282	1.189549528984118	-0.3144825073667952	-0.4339340485901715	-0.2562032276144224	-5.05879355478121e-08	6.406297431846998e-07	7.520521210647006e-08	8.601280001883466e-08	-7.044695543606517e-07	5.782600907299673e-09	8.178563988127905e-08
0.08	0.02907022952420724	0.09978412958699356	0.8999236388849509	0.1726438724326065	-0.3705995755292581	-0.215171739162396	-0.2267535727379601	0.2286314681424481	0.2286314681424542	-0.1701545379997025	-0.1602934861590349	0.08884347987914344	0.07787911267602018	-0.4638901371164294	-0.1971495142394522	-0.07406606188180381	1.107338764009586	-0.01147017497979962	0.1983114714287638	-0.2861230670391317	0.5634399230580587	0.5634399230580246	0.1052900562801932	-0.03650932679045455	-0.03456687464545546	-0.02521936235018398	0.0845044326427164	-0.06088468422085656	0.001077758595879469	-0.1887768527883216	0.06712283101666019	-0.0519421310389594	-0.03140102340848565	-7.850013913412681	21.62207289386989	-1.088584805760086	20.68155838109122	-436.7333152540612	-68.4065155404576	-26.18020739024147	-5.299128595347219	-2.174947439417139	-0.9878433897789091	12.45948926900113	-0.08710405973856408	2.118749644734347	-2.725040445915341	6.262952917923644	6.262952917923751	1.161169429475465	-0.4128738695088648	-0.3973010661348223	-0.2383362674311886	-4.937397027309915e-08	6.115324770679234e-07	5.561566284479564e-08	8.761586180641019e-08	-7.0928192731483e-07	6.517560706564442e-10	8.337661305098785e-08
